<svg width="1513" height="1513" viewBox="0 0 1513 1513" fill="none" xmlns="http://www.w3.org/2000/svg">
<rect x="0.5" y="0.5" width="1512" height="1512" fill="#2F2F2F" stroke="#794BCA"/>
<path d="M795.243 520.911C793.207 541.367 793.345 564.485 796.109 590.451C798.661 564.677 798.175 541.519 795.243 520.911Z" fill="#2F2E2E"/>
<path d="M862.506 747.591C910.951 721.89 937.504 706.013 980.654 667.559C1242.34 425.507 757.051 223.479 796.109 590.451C824.425 304.483 478.768 340.595 567.623 608.023C616.445 804.195 785.368 948.644 960.149 936.932C1072.44 929.407 1230.63 841.012 1248.2 647.059C1266.54 494.61 1191.56 371.968 1120.28 315.219C1040.22 251.474 910.351 208.011 796.109 208C627.186 215.808 538.33 270.464 456.31 368.064C394.795 444.192 358.366 550.594 344.997 686.24L262.665 905.048C262.292 906.041 262.757 907.152 263.727 907.581L365.502 952.688L393.818 1174.24C400.334 1188.51 405.296 1195.19 426.041 1194.74H599.846C616.445 1194.74 637.927 1207.42 637.927 1231.82C637.927 1256.22 637.927 1306 637.927 1306" stroke="url(#paint0_radial_79_2)" stroke-width="100" stroke-linecap="round"/>
<defs>
<radialGradient id="paint0_radial_79_2" cx="0" cy="0" r="1" gradientUnits="userSpaceOnUse" gradientTransform="translate(804.5 573.5) rotate(130.045) scale(474.829 527.64)">
<stop stop-color="#FFE791"/>
<stop offset="1" stop-color="#FFDB5A"/>
</radialGradient>
</defs>
</svg>
