<svg width="1089" height="1198" viewBox="0 0 1089 1198" fill="none" xmlns="http://www.w3.org/2000/svg">
<path d="M582.718 362.911C580.681 383.367 580.82 406.485 583.583 432.451C586.135 406.677 585.65 383.519 582.718 362.911Z" fill="#2F2E2E"/>
<path d="M649.981 589.591C698.426 563.89 724.979 548.013 768.129 509.559C1029.81 267.507 544.526 65.4793 583.583 432.451C611.9 146.483 266.243 182.595 355.098 450.023C403.92 646.195 572.843 790.644 747.624 778.932C859.914 771.407 1018.1 683.012 1035.67 489.059C1054.01 336.61 979.039 213.968 907.759 157.219C827.692 93.4745 697.826 50.0114 583.583 50C414.66 57.808 325.805 112.464 243.785 210.064C182.269 286.192 145.84 392.594 132.471 528.24L50.1397 747.048C49.7664 748.041 50.232 749.152 51.2012 749.581L152.976 794.688L181.293 1016.24C187.809 1030.51 192.77 1037.19 213.515 1036.74H387.32C403.92 1036.74 425.401 1049.42 425.401 1073.82C425.401 1098.22 425.401 1148 425.401 1148" stroke="url(#paint0_radial_226_3)" stroke-width="100" stroke-linecap="round"/>
<defs>
<radialGradient id="paint0_radial_226_3" cx="0" cy="0" r="1" gradientUnits="userSpaceOnUse" gradientTransform="translate(591.975 415.5) rotate(130.045) scale(474.829 527.64)">
<stop stop-color="#FFE791"/>
<stop offset="1" stop-color="#FFDB5A"/>
</radialGradient>
</defs>
</svg>
